<svg width="271" height="67" viewBox="0 0 271 67" fill="none" xmlns="http://www.w3.org/2000/svg">
<path d="M44.0513 25.3681L35.9514 21.2482V37.4279L35.9414 55.3477L44.0513 50.6377V37.4279V25.3681Z" fill="#30367A"/>
<path d="M28.5815 6.54839L52.1312 20.1482V47.3478L28.5815 60.9476L5.02188 47.3478V20.1482L28.5815 6.54839ZM28.5815 66.7475L57.1611 50.2478V17.2482L28.5815 0.748474L0.00195312 17.2482V50.2478L28.5815 66.7475Z" fill="#30367A"/>
<path d="M6.70184 21.1182V46.3778L28.5815 59.0076V37.4279H21.2016V46.2478L14.0717 42.1179V25.3681L21.2016 21.2482V30.0581H28.5815V8.47836L6.70184 21.1182Z" fill="#C4203C"/>
<path d="M70.9709 16.0983C69.3809 16.0983 68.2809 17.1982 68.2809 18.7582V34.868C68.2809 36.428 69.3809 37.5279 70.9709 37.5279H82.6107V32.168H74.9808V21.4882H81.5708L82.6107 18.7582V16.0983H70.9709ZM93.8106 21.4882V32.168H91.1506V21.4882H93.8106ZM97.8205 37.5279C99.4105 37.5279 100.52 36.428 100.52 34.868V18.7582C100.52 17.1982 99.4105 16.0983 97.8205 16.0983H87.1407C85.5507 16.0983 84.4407 17.1982 84.4407 18.7582V34.868C84.4407 36.428 85.5507 37.5279 87.1407 37.5279H97.8205ZM121.15 21.4582V32.168H118.76V21.4582H121.15ZM109.64 23.8681V16.0983H102.97V37.5279H109.64V29.2281H112.06V34.828C112.06 36.398 113.16 37.5279 114.75 37.5279H125.16C126.75 37.5279 127.86 36.398 127.86 34.828V18.7882C127.86 17.2282 126.75 16.0983 125.16 16.0983H114.72C113.16 16.0983 112.06 17.2282 112.06 18.7882V23.8681H109.64ZM141.33 37.5279C142.89 37.5279 143.99 36.398 143.99 34.828V29.4181C143.99 27.8481 142.73 26.8381 141.27 26.8381V26.2581C142.73 26.2581 143.99 25.2481 143.99 23.6581V18.7882C143.99 17.2282 142.89 16.0983 141.33 16.0983H129.69V18.7582L130.73 21.4582H137.32V23.8681H133.28V29.2281H137.32V32.168H129.69V37.5279H141.33ZM145.52 24.6681V28.9881H160.64V24.6681H145.52ZM169.189 37.5279V21.4582H171.849V37.5279H178.549V16.0983H162.48V37.5279H169.189ZM187.709 21.4882H190.369V25.4981H187.709V21.4882ZM194.379 30.848C195.969 30.848 197.079 29.7181 197.079 28.1581V18.7582C197.079 17.1982 195.969 16.0983 194.379 16.0983H180.999V37.5279H187.709V30.848H194.379ZM208.589 18.2382L205.429 25.6181H204.909L205.889 18.7582V16.0983H199.219V37.5279H205.889V35.388L209.049 28.0081H209.599L208.589 34.868V37.5279H215.259V16.0983H208.589V18.2382ZM224.379 32.168V29.2281H227.079V32.168H224.379ZM231.089 23.8681H224.379V21.4582H232.559L233.629 18.7582V16.0983H217.709V37.5279H231.089C232.649 37.5279 233.749 36.398 233.749 34.828V26.5381C233.749 24.9781 232.649 23.8681 231.089 23.8681ZM245.258 21.4882V32.168H242.598V21.4882H245.258ZM249.268 37.5279C250.868 37.5279 251.968 36.428 251.968 34.868V18.7582C251.968 17.1982 250.868 16.0983 249.268 16.0983H238.588C236.999 16.0983 235.899 17.1982 235.899 18.7582V34.868C235.899 36.428 236.999 37.5279 238.588 37.5279H249.268ZM261.118 21.4882H263.788V25.4981H261.118V21.4882ZM267.798 30.848C269.388 30.848 270.488 29.7181 270.488 28.1581V18.7582C270.488 17.1982 269.388 16.0983 267.798 16.0983H254.418V37.5279H261.118V30.848H267.798Z" fill="#30367A"/>
<path d="M69.601 49.5078V44.5478H70.4609V46.6178H71.1109C71.1909 46.6178 71.2709 46.6178 71.3609 46.5978C71.4409 46.5878 71.5309 46.5478 71.6109 46.4978C71.6909 46.4578 71.7709 46.3778 71.8409 46.2778C71.9109 46.1878 71.9709 46.0578 72.0209 45.8978L72.4509 44.5578H73.2909L72.8409 46.0078C72.7709 46.2478 72.6709 46.4578 72.5509 46.6178C72.4309 46.7778 72.2909 46.8878 72.1309 46.9378C72.3409 47.0078 72.5009 47.1278 72.6209 47.2978C72.7309 47.4678 72.8209 47.6778 72.8909 47.9178L73.3709 49.5078H72.4709L72.0709 48.1278C72.0209 47.9678 71.9609 47.8378 71.8909 47.7378C71.8209 47.6378 71.7509 47.5578 71.6709 47.4978C71.5909 47.4478 71.5109 47.4078 71.4209 47.3878C71.3309 47.3678 71.2409 47.3578 71.1509 47.3578H70.4609V49.5078H69.601ZM75.6509 44.5078C75.9309 44.5078 76.1909 44.5578 76.4209 44.6578C76.6409 44.7478 76.8408 44.8778 77.0008 45.0478C77.1608 45.2078 77.2908 45.4078 77.3708 45.6378C77.4608 45.8678 77.5008 46.1178 77.5008 46.3878V47.6578C77.5008 47.9478 77.4608 48.2078 77.3708 48.4478C77.2808 48.6778 77.1608 48.8778 76.9908 49.0378C76.8308 49.2078 76.6409 49.3278 76.4109 49.4178C76.1809 49.5078 75.9309 49.5478 75.6509 49.5478C75.3409 49.5478 75.0709 49.4978 74.8309 49.3978C74.6009 49.2978 74.4109 49.1578 74.2609 48.9878C74.1009 48.8078 73.9909 48.6078 73.9109 48.3778C73.8409 48.1578 73.8009 47.9178 73.8009 47.6578V46.3878C73.8009 46.1478 73.8409 45.9078 73.9109 45.6778C73.9909 45.4478 74.1009 45.2478 74.2609 45.0778C74.4109 44.9078 74.6009 44.7678 74.8309 44.6678C75.0709 44.5578 75.3409 44.5078 75.6509 44.5078ZM75.6409 45.3278C75.4809 45.3278 75.3309 45.3478 75.2109 45.4078C75.0909 45.4678 74.9909 45.5378 74.9109 45.6378C74.8309 45.7378 74.7609 45.8478 74.7209 45.9678C74.6809 46.0978 74.6609 46.2178 74.6609 46.3478V47.6778C74.6609 47.8178 74.6809 47.9478 74.7209 48.0778C74.7609 48.2078 74.8309 48.3178 74.9109 48.4178C74.9909 48.5178 75.0909 48.5978 75.2109 48.6578C75.3309 48.7178 75.4809 48.7478 75.6409 48.7478C75.8009 48.7478 75.9309 48.7178 76.0509 48.6578C76.1809 48.6078 76.2809 48.5378 76.3609 48.4378C76.4509 48.3478 76.5109 48.2278 76.5609 48.1078C76.6009 47.9778 76.6209 47.8378 76.6209 47.6778V46.3478C76.6209 46.2078 76.6009 46.0778 76.5609 45.9478C76.5109 45.8278 76.4509 45.7178 76.3609 45.6278C76.2809 45.5378 76.1809 45.4578 76.0509 45.4078C75.9309 45.3478 75.8009 45.3278 75.6409 45.3278ZM81.1208 49.5078V47.3878H79.2108V49.5078H78.3508V44.5478H79.2108V46.6278H81.1208V44.5478H81.9808V49.5078H81.1208ZM84.7707 45.3178V49.5078H83.9107V45.3178H82.5308V44.5478H86.1507V45.3178H84.7707ZM90.3507 46.0978C90.3507 46.2978 90.3107 46.4878 90.2407 46.6678C90.1607 46.8478 90.0507 47.0078 89.9007 47.1478C89.7607 47.2878 89.5907 47.3978 89.3907 47.4778C89.1907 47.5578 88.9707 47.6078 88.7307 47.6078H87.5907V49.5078H86.7307V44.5478H88.6607C88.9007 44.5478 89.1207 44.5778 89.3207 44.6478C89.5207 44.7078 89.7007 44.8078 89.8607 44.9378C90.0107 45.0678 90.1307 45.2278 90.2207 45.4178C90.3107 45.6178 90.3507 45.8478 90.3507 46.0978ZM89.4707 46.0778C89.4707 45.8178 89.3907 45.6378 89.2407 45.5078C89.0907 45.3878 88.8907 45.3278 88.6407 45.3278H87.5907V46.8178H88.6707C88.9207 46.8178 89.1207 46.7478 89.2607 46.5978C89.4007 46.4478 89.4707 46.2778 89.4707 46.0778ZM92.5906 44.5078C92.8806 44.5078 93.1306 44.5578 93.3606 44.6578C93.5906 44.7478 93.7806 44.8778 93.9506 45.0478C94.1106 45.2078 94.2306 45.4078 94.3206 45.6378C94.4006 45.8678 94.4406 46.1178 94.4406 46.3878V47.6578C94.4406 47.9478 94.4006 48.2078 94.3106 48.4478C94.2306 48.6778 94.1006 48.8778 93.9406 49.0378C93.7806 49.2078 93.5806 49.3278 93.3506 49.4178C93.1306 49.5078 92.8706 49.5478 92.5906 49.5478C92.2806 49.5478 92.0106 49.4978 91.7806 49.3978C91.5506 49.2978 91.3506 49.1578 91.2006 48.9878C91.0506 48.8078 90.9406 48.6078 90.8606 48.3778C90.7806 48.1578 90.7506 47.9178 90.7506 47.6578V46.3878C90.7506 46.1478 90.7806 45.9078 90.8606 45.6778C90.9406 45.4478 91.0506 45.2478 91.2006 45.0778C91.3506 44.9078 91.5506 44.7678 91.7806 44.6678C92.0106 44.5578 92.2806 44.5078 92.5906 44.5078ZM92.5906 45.3278C92.4206 45.3278 92.2806 45.3478 92.1606 45.4078C92.0306 45.4678 91.9306 45.5378 91.8506 45.6378C91.7706 45.7378 91.7106 45.8478 91.6706 45.9678C91.6306 46.0978 91.6106 46.2178 91.6106 46.3478V47.6778C91.6106 47.8178 91.6306 47.9478 91.6706 48.0778C91.7106 48.2078 91.7706 48.3178 91.8506 48.4178C91.9306 48.5178 92.0306 48.5978 92.1606 48.6578C92.2806 48.7178 92.4206 48.7478 92.5906 48.7478C92.7406 48.7478 92.8806 48.7178 93.0006 48.6578C93.1206 48.6078 93.2206 48.5378 93.3106 48.4378C93.3906 48.3478 93.4606 48.2278 93.5006 48.1078C93.5506 47.9778 93.5706 47.8378 93.5706 47.6778V46.3478C93.5706 46.2078 93.5506 46.0778 93.5006 45.9478C93.4606 45.8278 93.3906 45.7178 93.3106 45.6278C93.2206 45.5378 93.1206 45.4578 93.0006 45.4078C92.8806 45.3478 92.7406 45.3278 92.5906 45.3278ZM98.1105 45.3178H96.6006V46.6978C96.6006 47.1778 96.5806 47.5978 96.5406 47.9378C96.4906 48.2878 96.4106 48.5878 96.2906 48.8278C96.1806 49.0578 96.0106 49.2378 95.8106 49.3678C95.6006 49.4978 95.3406 49.5678 95.0206 49.5978C94.9906 49.4778 94.9706 49.3678 94.9406 49.2478C94.9106 49.1278 94.8906 49.0178 94.8606 48.8978C95.0306 48.8478 95.1806 48.7778 95.3006 48.6978C95.4306 48.6178 95.5206 48.5178 95.6006 48.3778C95.6706 48.2378 95.7206 48.0678 95.7506 47.8678C95.7806 47.6578 95.8006 47.4078 95.8006 47.1078V44.5478H98.9705V49.5078H98.1105V45.3178ZM103.7 47.9978C103.7 48.2478 103.66 48.4678 103.57 48.6578C103.48 48.8478 103.37 48.9978 103.22 49.1278C103.07 49.2478 102.89 49.3478 102.68 49.4078C102.48 49.4778 102.25 49.5078 102.02 49.5078H100.061V44.5478H100.92V46.5678H102.03C102.3 46.5678 102.53 46.6078 102.74 46.6878C102.95 46.7578 103.12 46.8578 103.26 46.9878C103.41 47.1178 103.51 47.2678 103.59 47.4478C103.66 47.6178 103.7 47.7978 103.7 47.9978ZM102.81 48.0278C102.81 47.9378 102.8 47.8578 102.76 47.7778C102.73 47.6978 102.68 47.6278 102.61 47.5578C102.55 47.4978 102.46 47.4478 102.36 47.4078C102.27 47.3778 102.15 47.3578 102.01 47.3578H100.92V48.7278H102.01C102.27 48.7278 102.46 48.6578 102.6 48.5378C102.74 48.4178 102.81 48.2478 102.81 48.0278ZM107.08 49.5078V47.3878H105.17V49.5078H104.31V44.5478H105.17V46.6278H107.08V44.5478H107.95V49.5078H107.08ZM110.63 44.5078C110.91 44.5078 111.17 44.5578 111.4 44.6578C111.62 44.7478 111.82 44.8778 111.98 45.0478C112.14 45.2078 112.27 45.4078 112.35 45.6378C112.44 45.8678 112.48 46.1178 112.48 46.3878V47.6578C112.48 47.9478 112.44 48.2078 112.35 48.4478C112.26 48.6778 112.14 48.8778 111.97 49.0378C111.81 49.2078 111.62 49.3278 111.39 49.4178C111.16 49.5078 110.91 49.5478 110.63 49.5478C110.32 49.5478 110.05 49.4978 109.81 49.3978C109.58 49.2978 109.39 49.1578 109.24 48.9878C109.08 48.8078 108.97 48.6078 108.89 48.3778C108.82 48.1578 108.78 47.9178 108.78 47.6578V46.3878C108.78 46.1478 108.82 45.9078 108.89 45.6778C108.97 45.4478 109.08 45.2478 109.24 45.0778C109.39 44.9078 109.58 44.7678 109.81 44.6678C110.05 44.5578 110.32 44.5078 110.63 44.5078ZM110.62 45.3278C110.46 45.3278 110.31 45.3478 110.19 45.4078C110.07 45.4678 109.97 45.5378 109.89 45.6378C109.81 45.7378 109.74 45.8478 109.7 45.9678C109.66 46.0978 109.64 46.2178 109.64 46.3478V47.6778C109.64 47.8178 109.66 47.9478 109.7 48.0778C109.74 48.2078 109.81 48.3178 109.89 48.4178C109.97 48.5178 110.07 48.5978 110.19 48.6578C110.31 48.7178 110.46 48.7478 110.62 48.7478C110.78 48.7478 110.91 48.7178 111.03 48.6578C111.16 48.6078 111.26 48.5378 111.34 48.4378C111.43 48.3478 111.49 48.2278 111.54 48.1078C111.58 47.9778 111.6 47.8378 111.6 47.6778V46.3478C111.6 46.2078 111.58 46.0778 111.54 45.9478C111.49 45.8278 111.43 45.7178 111.34 45.6278C111.26 45.5378 111.16 45.4578 111.03 45.4078C110.91 45.3478 110.78 45.3278 110.62 45.3278ZM113.16 48.0078V47.2678H115.42V48.0078H113.16ZM116.29 49.5078V44.5478H117.16V48.0578C117.16 48.0578 117.17 48.0578 117.18 48.0578L118.33 46.2878L119.48 44.5478H120.2V49.5078H119.34V46.1378H119.32L118.33 47.6578C118.12 47.9678 117.92 48.2778 117.71 48.5878C117.51 48.8878 117.3 49.1978 117.09 49.5078H116.29ZM122.67 49.5478C122.22 49.5478 121.83 49.4478 121.51 49.2478C121.18 49.0578 120.95 48.7778 120.82 48.4278L121.62 48.0778C121.65 48.1678 121.7 48.2578 121.78 48.3378C121.85 48.4178 121.93 48.4878 122.02 48.5478C122.11 48.6178 122.22 48.6578 122.33 48.6978C122.44 48.7378 122.56 48.7478 122.67 48.7478C122.95 48.7478 123.18 48.6878 123.36 48.5478C123.54 48.4178 123.63 48.2378 123.63 47.9978C123.63 47.7678 123.56 47.5878 123.41 47.4578C123.27 47.3378 123.07 47.2678 122.82 47.2678H122.24V46.5378H122.83C123.05 46.5378 123.24 46.4778 123.38 46.3578C123.52 46.2478 123.59 46.0978 123.59 45.9078C123.59 45.7078 123.51 45.5678 123.35 45.4678C123.19 45.3678 123 45.3178 122.78 45.3178C122.54 45.3178 122.33 45.3778 122.14 45.4878C121.96 45.6078 121.82 45.7578 121.73 45.9478L120.98 45.5678C121.12 45.2378 121.34 44.9878 121.65 44.7878C121.95 44.5978 122.33 44.5078 122.78 44.5078C123.3 44.5078 123.71 44.6178 124.01 44.8478C124.31 45.0778 124.46 45.3978 124.46 45.8178C124.46 45.8978 124.44 45.9978 124.42 46.0978C124.4 46.1878 124.36 46.2878 124.3 46.3878C124.25 46.4778 124.17 46.5678 124.08 46.6578C123.99 46.7378 123.87 46.8078 123.74 46.8678C123.74 46.8778 123.74 46.8878 123.74 46.8878C123.74 46.8878 123.74 46.8978 123.74 46.9078C123.9 46.9578 124.03 47.0178 124.13 47.1078C124.23 47.1978 124.31 47.2978 124.36 47.4078C124.42 47.5178 124.46 47.6278 124.48 47.7378C124.5 47.8478 124.51 47.9478 124.51 48.0378C124.51 48.2778 124.47 48.4878 124.37 48.6778C124.28 48.8578 124.15 49.0178 123.98 49.1478C123.81 49.2678 123.62 49.3678 123.39 49.4378C123.17 49.5078 122.92 49.5478 122.67 49.5478ZM128.95 49.5078V46.5678H128.93L128.67 47.1978L128.31 47.9978L127.92 48.8078H127.23L126.94 48.2078L126.47 47.1578L126.22 46.5578L126.2 46.5778V49.5078H125.33V44.5478H126.14L126.79 45.9678C126.93 46.2678 127.06 46.5578 127.18 46.8578C127.31 47.1478 127.44 47.4478 127.56 47.7478H127.59L127.99 46.7978L128.36 45.9678L128.99 44.5478H129.82V49.5078H128.95ZM130.79 49.5078V44.5478H134.11V45.3278H131.65V46.6278H133.75V47.3878H131.65V48.7278H134.11V49.5078H130.79ZM138.43 46.0978C138.43 46.2978 138.39 46.4878 138.31 46.6678C138.23 46.8478 138.12 47.0078 137.98 47.1478C137.84 47.2878 137.67 47.3978 137.47 47.4778C137.27 47.5578 137.05 47.6078 136.8 47.6078H135.67V49.5078H134.81V44.5478H136.74C136.97 44.5478 137.19 44.5778 137.4 44.6478C137.6 44.7078 137.78 44.8078 137.93 44.9378C138.09 45.0678 138.21 45.2278 138.3 45.4178C138.38 45.6178 138.43 45.8478 138.43 46.0978ZM137.54 46.0778C137.54 45.8178 137.47 45.6378 137.32 45.5078C137.16 45.3878 136.96 45.3278 136.72 45.3278H135.67V46.8178H136.75C137 46.8178 137.19 46.7478 137.33 46.5978C137.47 46.4478 137.54 46.2778 137.54 46.0778ZM139.02 49.5078V44.5478H139.88V48.0578C139.89 48.0578 139.89 48.0578 139.9 48.0578L141.06 46.2878L142.21 44.5478H142.93V49.5078H142.06V46.1378H142.04L141.06 47.6578C140.85 47.9678 140.64 48.2778 140.44 48.5878C140.23 48.8878 140.03 49.1978 139.81 49.5078H139.02ZM145.71 45.3178V49.5078H144.84V45.3178H143.47V44.5478H147.09V45.3178H145.71ZM147.67 49.5078V44.5478H150.99V45.3278H148.53V46.6278H150.63V47.3878H148.53V48.7278H150.99V49.5078H147.67ZM154.5 45.3178H153V46.6978C153 47.1778 152.98 47.5978 152.93 47.9378C152.89 48.2878 152.81 48.5878 152.69 48.8278C152.57 49.0578 152.41 49.2378 152.2 49.3678C152 49.4978 151.73 49.5678 151.41 49.5978C151.39 49.4778 151.36 49.3678 151.34 49.2478C151.31 49.1278 151.28 49.0178 151.25 48.8978C151.43 48.8478 151.58 48.7778 151.7 48.6978C151.82 48.6178 151.92 48.5178 151.99 48.3778C152.06 48.2378 152.12 48.0678 152.15 47.8678C152.18 47.6578 152.19 47.4078 152.19 47.1078V44.5478H155.37V49.5078H154.5V45.3178ZM160.09 47.9978C160.09 48.2478 160.05 48.4678 159.96 48.6578C159.88 48.8478 159.76 48.9978 159.61 49.1278C159.46 49.2478 159.28 49.3478 159.08 49.4078C158.87 49.4778 158.65 49.5078 158.41 49.5078H156.45V44.5478H157.31V46.5678H158.42C158.69 46.5678 158.93 46.6078 159.13 46.6878C159.34 46.7578 159.52 46.8578 159.66 46.9878C159.8 47.1178 159.91 47.2678 159.98 47.4478C160.06 47.6178 160.09 47.7978 160.09 47.9978ZM159.21 48.0278C159.21 47.9378 159.19 47.8578 159.16 47.7778C159.13 47.6978 159.08 47.6278 159.01 47.5578C158.94 47.4978 158.86 47.4478 158.76 47.4078C158.66 47.3778 158.54 47.3578 158.4 47.3578H157.31V48.7278H158.4C158.66 48.7278 158.86 48.6578 159 48.5378C159.14 48.4178 159.21 48.2478 159.21 48.0278ZM163.48 49.5078V47.3878H161.57V49.5078H160.71V44.5478H161.57V46.6278H163.48V44.5478H164.34V49.5078H163.48ZM165.4 49.5078V44.5478H166.27V46.5678H167.39C167.65 46.5678 167.89 46.6078 168.09 46.6878C168.3 46.7578 168.47 46.8578 168.61 46.9878C168.76 47.1178 168.86 47.2678 168.94 47.4478C169.01 47.6178 169.05 47.7978 169.05 47.9978C169.05 48.2478 169 48.4678 168.92 48.6578C168.83 48.8478 168.71 48.9978 168.57 49.1278C168.42 49.2478 168.24 49.3478 168.03 49.4078C167.82 49.4778 167.6 49.5078 167.36 49.5078H165.4ZM169.5 49.5078V44.5478H170.359V49.5078H169.5ZM168.16 48.0278C168.16 47.8578 168.1 47.6978 167.96 47.5578C167.83 47.4278 167.63 47.3578 167.36 47.3578H166.27V48.7278H167.36C167.61 48.7278 167.81 48.6578 167.95 48.5378C168.09 48.4178 168.16 48.2478 168.16 48.0278ZM171.369 49.5078V44.5478H174.689V45.3278H172.229V46.6278H174.329V47.3878H172.229V48.7278H174.689V49.5078H171.369ZM179.959 49.5078V45.3178H178.049V49.5078H177.189V44.5478H180.819V49.5078H179.959ZM185.479 46.0978C185.479 46.2978 185.439 46.4878 185.359 46.6678C185.279 46.8478 185.169 47.0078 185.029 47.1478C184.889 47.2878 184.719 47.3978 184.519 47.4778C184.319 47.5578 184.089 47.6078 183.849 47.6078H182.719V49.5078H181.859V44.5478H183.789C184.019 44.5478 184.239 44.5778 184.439 44.6478C184.649 44.7078 184.829 44.8078 184.979 44.9378C185.139 45.0678 185.259 45.2278 185.349 45.4178C185.429 45.6178 185.479 45.8478 185.479 46.0978ZM184.589 46.0778C184.589 45.8178 184.519 45.6378 184.369 45.5078C184.209 45.3878 184.009 45.3278 183.769 45.3278H182.719V46.8178H183.799C184.049 46.8178 184.239 46.7478 184.379 46.5978C184.519 46.4478 184.589 46.2778 184.589 46.0778ZM186.069 49.5078V44.5478H186.929V48.0578C186.939 48.0578 186.939 48.0578 186.949 48.0578L188.109 46.2878L189.259 44.5478H189.979V49.5078H189.109V46.1378H189.089L188.109 47.6578C187.899 47.9678 187.689 48.2778 187.489 48.5878C187.279 48.8878 187.069 49.1978 186.859 49.5078H186.069ZM190.939 49.5078V44.5478H194.079V45.3278H191.799V46.5678H192.909C193.179 46.5678 193.419 46.6078 193.629 46.6878C193.839 46.7578 194.019 46.8578 194.159 46.9878C194.299 47.1178 194.399 47.2678 194.479 47.4478C194.549 47.6178 194.589 47.7978 194.589 47.9978C194.589 48.2478 194.549 48.4678 194.459 48.6578C194.369 48.8478 194.259 48.9978 194.099 49.1278C193.949 49.2478 193.769 49.3478 193.569 49.4078C193.359 49.4778 193.139 49.5078 192.909 49.5078H190.939ZM193.699 48.0278C193.699 47.9478 193.689 47.8578 193.659 47.7778C193.629 47.6978 193.579 47.6278 193.509 47.5578C193.449 47.4978 193.359 47.4478 193.259 47.4078C193.159 47.3778 193.029 47.3578 192.889 47.3578H191.799V48.7278H192.889C193.149 48.7278 193.349 48.6678 193.489 48.5378C193.629 48.4178 193.699 48.2478 193.699 48.0278ZM196.949 44.5078C197.229 44.5078 197.489 44.5578 197.719 44.6578C197.949 44.7478 198.139 44.8778 198.299 45.0478C198.459 45.2078 198.589 45.4078 198.669 45.6378C198.759 45.8678 198.799 46.1178 198.799 46.3878V47.6578C198.799 47.9478 198.759 48.2078 198.669 48.4478C198.579 48.6778 198.459 48.8778 198.299 49.0378C198.129 49.2078 197.939 49.3278 197.709 49.4178C197.479 49.5078 197.229 49.5478 196.949 49.5478C196.639 49.5478 196.369 49.4978 196.139 49.3978C195.899 49.2978 195.709 49.1578 195.559 48.9878C195.409 48.8078 195.289 48.6078 195.219 48.3778C195.139 48.1578 195.099 47.9178 195.099 47.6578V46.3878C195.099 46.1478 195.139 45.9078 195.219 45.6778C195.289 45.4478 195.409 45.2478 195.559 45.0778C195.709 44.9078 195.899 44.7678 196.139 44.6678C196.369 44.5578 196.639 44.5078 196.949 44.5078ZM196.939 45.3278C196.779 45.3278 196.629 45.3478 196.509 45.4078C196.389 45.4678 196.289 45.5378 196.209 45.6378C196.129 45.7378 196.069 45.8478 196.019 45.9678C195.979 46.0978 195.959 46.2178 195.959 46.3478V47.6778C195.959 47.8178 195.979 47.9478 196.019 48.0778C196.069 48.2078 196.129 48.3178 196.209 48.4178C196.289 48.5178 196.389 48.5978 196.509 48.6578C196.629 48.7178 196.779 48.7478 196.939 48.7478C197.099 48.7478 197.229 48.7178 197.359 48.6578C197.479 48.6078 197.579 48.5378 197.659 48.4378C197.749 48.3478 197.809 48.2278 197.859 48.1078C197.899 47.9778 197.919 47.8378 197.919 47.6778V46.3478C197.919 46.2078 197.899 46.0778 197.859 45.9478C197.809 45.8278 197.749 45.7178 197.659 45.6278C197.579 45.5378 197.479 45.4578 197.359 45.4078C197.229 45.3478 197.099 45.3278 196.939 45.3278ZM203.269 46.0978C203.269 46.2978 203.229 46.4878 203.149 46.6678C203.069 46.8478 202.959 47.0078 202.819 47.1478C202.679 47.2878 202.509 47.3978 202.309 47.4778C202.109 47.5578 201.889 47.6078 201.649 47.6078H200.509V49.5078H199.649V44.5478H201.579C201.809 44.5478 202.029 44.5778 202.239 44.6478C202.439 44.7078 202.619 44.8078 202.779 44.9378C202.929 45.0678 203.049 45.2278 203.139 45.4178C203.229 45.6178 203.269 45.8478 203.269 46.0978ZM202.389 46.0778C202.389 45.8178 202.309 45.6378 202.159 45.5078C202.009 45.3878 201.809 45.3278 201.559 45.3278H200.509V46.8178H201.589C201.839 46.8178 202.039 46.7478 202.179 46.5978C202.319 46.4478 202.389 46.2778 202.389 46.0778ZM203.889 49.5078V44.5478H204.749V46.5678H205.869C206.139 46.5678 206.379 46.6078 206.579 46.6878C206.789 46.7578 206.959 46.8578 207.099 46.9878C207.239 47.1178 207.349 47.2678 207.419 47.4478C207.499 47.6178 207.529 47.7978 207.529 47.9978C207.529 48.2478 207.489 48.4678 207.409 48.6578C207.319 48.8478 207.199 48.9978 207.049 49.1278C206.899 49.2478 206.719 49.3478 206.519 49.4078C206.309 49.4778 206.089 49.5078 205.849 49.5078H203.889ZM207.979 49.5078V44.5478H208.849V49.5078H207.979ZM206.649 48.0278C206.649 47.8578 206.579 47.6978 206.449 47.5578C206.319 47.4278 206.119 47.3578 205.839 47.3578H204.749V48.7278H205.839C206.099 48.7278 206.299 48.6578 206.439 48.5378C206.579 48.4178 206.649 48.2478 206.649 48.0278ZM211.649 49.5078V44.5478H212.519V48.0578C212.519 48.0578 212.529 48.0578 212.539 48.0578L213.689 46.2878L214.839 44.5478H215.559V49.5078H214.699V46.1378H214.679L213.689 47.6578C213.479 47.9678 213.279 48.2778 213.069 48.5878C212.869 48.8878 212.659 49.1978 212.449 49.5078H211.649ZM220.029 44.5078C220.319 44.5078 220.569 44.5578 220.799 44.6578C221.029 44.7478 221.219 44.8778 221.379 45.0478C221.549 45.2078 221.669 45.4078 221.759 45.6378C221.839 45.8678 221.879 46.1178 221.879 46.3878V47.6578C221.879 47.9478 221.839 48.2078 221.749 48.4478C221.659 48.6778 221.539 48.8778 221.379 49.0378C221.219 49.2078 221.019 49.3278 220.789 49.4178C220.569 49.5078 220.309 49.5478 220.029 49.5478C219.719 49.5478 219.449 49.4978 219.219 49.3978C218.979 49.2978 218.789 49.1578 218.639 48.9878C218.489 48.8078 218.369 48.6078 218.299 48.3778C218.219 48.1578 218.179 47.9178 218.179 47.6578V46.3878C218.179 46.1478 218.219 45.9078 218.299 45.6778C218.369 45.4478 218.489 45.2478 218.639 45.0778C218.789 44.9078 218.979 44.7678 219.219 44.6678C219.449 44.5578 219.719 44.5078 220.029 44.5078ZM220.029 45.3278C219.859 45.3278 219.719 45.3478 219.589 45.4078C219.469 45.4678 219.369 45.5378 219.289 45.6378C219.209 45.7378 219.149 45.8478 219.109 45.9678C219.069 46.0978 219.049 46.2178 219.049 46.3478V47.6778C219.049 47.8178 219.069 47.9478 219.109 48.0778C219.149 48.2078 219.209 48.3178 219.289 48.4178C219.369 48.5178 219.469 48.5978 219.589 48.6578C219.719 48.7178 219.859 48.7478 220.029 48.7478C220.179 48.7478 220.319 48.7178 220.439 48.6578C220.559 48.6078 220.659 48.5378 220.749 48.4378C220.829 48.3478 220.889 48.2278 220.939 48.1078C220.979 47.9778 221.009 47.8378 221.009 47.6778V46.3478C221.009 46.2078 220.979 46.0778 220.939 45.9478C220.889 45.8278 220.829 45.7178 220.749 45.6278C220.659 45.5378 220.559 45.4578 220.439 45.4078C220.319 45.3478 220.179 45.3278 220.029 45.3278ZM222.669 49.5078V44.5478H225.809V45.3278H223.529V46.5678H224.639C224.909 46.5678 225.149 46.6078 225.359 46.6878C225.569 46.7578 225.749 46.8578 225.889 46.9878C226.029 47.1178 226.129 47.2678 226.209 47.4478C226.279 47.6178 226.319 47.7978 226.319 47.9978C226.319 48.2478 226.279 48.4678 226.189 48.6578C226.099 48.8478 225.989 48.9978 225.829 49.1278C225.679 49.2478 225.499 49.3478 225.299 49.4078C225.089 49.4778 224.869 49.5078 224.639 49.5078H222.669ZM225.429 48.0278C225.429 47.9478 225.419 47.8578 225.389 47.7778C225.359 47.6978 225.309 47.6278 225.239 47.5578C225.179 47.4978 225.089 47.4478 224.989 47.4078C224.889 47.3778 224.759 47.3578 224.619 47.3578H223.529V48.7278H224.619C224.879 48.7278 225.079 48.6678 225.219 48.5378C225.359 48.4178 225.429 48.2478 225.429 48.0278ZM228.679 44.5078C228.959 44.5078 229.219 44.5578 229.449 44.6578C229.679 44.7478 229.869 44.8778 230.029 45.0478C230.189 45.2078 230.319 45.4078 230.399 45.6378C230.489 45.8678 230.529 46.1178 230.529 46.3878V47.6578C230.529 47.9478 230.489 48.2078 230.399 48.4478C230.309 48.6778 230.189 48.8778 230.019 49.0378C229.859 49.2078 229.669 49.3278 229.439 49.4178C229.209 49.5078 228.959 49.5478 228.679 49.5478C228.369 49.5478 228.099 49.4978 227.859 49.3978C227.629 49.2978 227.439 49.1578 227.289 48.9878C227.139 48.8078 227.019 48.6078 226.949 48.3778C226.869 48.1578 226.829 47.9178 226.829 47.6578V46.3878C226.829 46.1478 226.869 45.9078 226.949 45.6778C227.019 45.4478 227.139 45.2478 227.289 45.0778C227.439 44.9078 227.629 44.7678 227.859 44.6678C228.099 44.5578 228.369 44.5078 228.679 44.5078ZM228.669 45.3278C228.509 45.3278 228.359 45.3478 228.239 45.4078C228.119 45.4678 228.019 45.5378 227.939 45.6378C227.859 45.7378 227.789 45.8478 227.749 45.9678C227.709 46.0978 227.689 46.2178 227.689 46.3478V47.6778C227.689 47.8178 227.709 47.9478 227.749 48.0778C227.789 48.2078 227.859 48.3178 227.939 48.4178C228.019 48.5178 228.119 48.5978 228.239 48.6578C228.359 48.7178 228.509 48.7478 228.669 48.7478C228.829 48.7478 228.959 48.7178 229.089 48.6578C229.209 48.6078 229.309 48.5378 229.389 48.4378C229.479 48.3478 229.539 48.2278 229.589 48.1078C229.629 47.9778 229.649 47.8378 229.649 47.6778V46.3478C229.649 46.2078 229.629 46.0778 229.589 45.9478C229.539 45.8278 229.479 45.7178 229.389 45.6278C229.309 45.5378 229.209 45.4578 229.089 45.4078C228.959 45.3478 228.829 45.3278 228.669 45.3278ZM234.999 46.0978C234.999 46.2978 234.959 46.4878 234.879 46.6678C234.799 46.8478 234.689 47.0078 234.549 47.1478C234.409 47.2878 234.239 47.3978 234.039 47.4778C233.839 47.5578 233.619 47.6078 233.379 47.6078H232.239V49.5078H231.379V44.5478H233.309C233.539 44.5478 233.759 44.5778 233.969 44.6478C234.169 44.7078 234.349 44.8078 234.509 44.9378C234.659 45.0678 234.779 45.2278 234.869 45.4178C234.959 45.6178 234.999 45.8478 234.999 46.0978ZM234.119 46.0778C234.119 45.8178 234.039 45.6378 233.889 45.5078C233.739 45.3878 233.539 45.3278 233.289 45.3278H232.239V46.8178H233.319C233.569 46.8178 233.769 46.7478 233.909 46.5978C234.049 46.4478 234.119 46.2778 234.119 46.0778ZM235.849 48.8678H236.179C236.299 48.8678 236.389 48.8378 236.469 48.7978C236.539 48.7478 236.599 48.6578 236.659 48.5378L236.709 48.4078L235.209 44.5478H236.149L236.679 46.1178L237.139 47.3978H237.169L237.589 46.1278L238.119 44.5478H239.029L237.589 48.4078C237.499 48.6378 237.419 48.8278 237.329 48.9878C237.249 49.1378 237.149 49.2578 237.049 49.3578C236.949 49.4478 236.839 49.5078 236.729 49.5478C236.609 49.5878 236.469 49.6078 236.309 49.6078H235.849V48.8678ZM238.699 48.8178C238.779 48.7978 238.849 48.7878 238.929 48.7678C238.999 48.7578 239.079 48.7378 239.159 48.7178C239.278 48.6278 239.368 48.5378 239.428 48.4278C239.498 48.3278 239.548 48.1978 239.598 48.0378C239.638 47.8778 239.668 47.6878 239.678 47.4578C239.698 47.2278 239.718 46.9578 239.728 46.6278L239.818 44.5478H243.088C243.088 45.2478 243.088 45.9478 243.098 46.6478C243.098 47.3478 243.098 48.0478 243.098 48.7478H243.578V50.6078H242.808V49.5078H239.468V50.6078H238.699V48.8178ZM240.578 45.3178C240.568 45.5478 240.558 45.7678 240.548 45.9878C240.538 46.1978 240.528 46.4278 240.518 46.6478C240.508 46.8678 240.498 47.0778 240.488 47.2878C240.468 47.4878 240.458 47.6878 240.428 47.8578C240.408 48.0378 240.368 48.2078 240.328 48.3578C240.278 48.5078 240.218 48.6378 240.148 48.7478H242.238V45.3178H240.578ZM245.938 44.5078C246.228 44.5078 246.488 44.5578 246.708 44.6578C246.938 44.7478 247.138 44.8778 247.298 45.0478C247.458 45.2078 247.578 45.4078 247.668 45.6378C247.748 45.8678 247.798 46.1178 247.798 46.3878V47.6578C247.798 47.9478 247.748 48.2078 247.658 48.4478C247.578 48.6778 247.448 48.8778 247.288 49.0378C247.128 49.2078 246.928 49.3278 246.708 49.4178C246.478 49.5078 246.218 49.5478 245.938 49.5478C245.628 49.5478 245.358 49.4978 245.128 49.3978C244.898 49.2978 244.708 49.1578 244.548 48.9878C244.398 48.8078 244.288 48.6078 244.208 48.3778C244.138 48.1578 244.098 47.9178 244.098 47.6578V46.3878C244.098 46.1478 244.138 45.9078 244.208 45.6778C244.288 45.4478 244.398 45.2478 244.548 45.0778C244.708 44.9078 244.898 44.7678 245.128 44.6678C245.358 44.5578 245.628 44.5078 245.938 44.5078ZM245.938 45.3278C245.768 45.3278 245.628 45.3478 245.508 45.4078C245.378 45.4678 245.278 45.5378 245.198 45.6378C245.118 45.7378 245.058 45.8478 245.018 45.9678C244.978 46.0978 244.958 46.2178 244.958 46.3478V47.6778C244.958 47.8178 244.978 47.9478 245.018 48.0778C245.058 48.2078 245.118 48.3178 245.198 48.4178C245.278 48.5178 245.378 48.5978 245.508 48.6578C245.628 48.7178 245.768 48.7478 245.938 48.7478C246.088 48.7478 246.228 48.7178 246.348 48.6578C246.468 48.6078 246.578 48.5378 246.658 48.4378C246.738 48.3478 246.808 48.2278 246.848 48.1078C246.898 47.9778 246.918 47.8378 246.918 47.6778V46.3478C246.918 46.2078 246.898 46.0778 246.848 45.9478C246.808 45.8278 246.738 45.7178 246.658 45.6278C246.578 45.5378 246.468 45.4578 246.348 45.4078C246.228 45.3478 246.088 45.3278 245.938 45.3278Z" fill="#30367A"/>
<path d="M252.268 48.0778C252.268 48.2978 252.228 48.4878 252.158 48.6678C252.078 48.8378 251.968 48.9978 251.838 49.1178C251.708 49.2478 251.548 49.3378 251.378 49.4078C251.198 49.4778 251.008 49.5078 250.818 49.5078H248.648V44.5478H250.628C250.878 44.5478 251.098 44.5778 251.298 44.6478C251.488 44.7078 251.648 44.8078 251.788 44.9278C251.918 45.0378 252.008 45.1878 252.078 45.3478C252.148 45.5178 252.178 45.6978 252.178 45.8978C252.178 45.9978 252.168 46.0878 252.148 46.1878C252.128 46.2778 252.088 46.3678 252.038 46.4578C251.988 46.5478 251.918 46.6278 251.828 46.7178C251.738 46.7978 251.628 46.8578 251.498 46.9178V46.9478C251.618 46.9878 251.738 47.0478 251.838 47.1278C251.928 47.2078 252.008 47.2978 252.078 47.4078C252.138 47.5078 252.188 47.6178 252.218 47.7378C252.258 47.8478 252.268 47.9678 252.268 48.0778ZM251.278 45.9478C251.278 45.7678 251.218 45.6178 251.098 45.4978C250.968 45.3778 250.778 45.3178 250.508 45.3178H249.508V46.6078H250.508C250.778 46.6078 250.968 46.5378 251.098 46.4178C251.218 46.2878 251.278 46.1278 251.278 45.9478ZM251.398 48.0278C251.398 47.9378 251.378 47.8578 251.348 47.7678C251.318 47.6878 251.268 47.6178 251.208 47.5478C251.138 47.4878 251.058 47.4378 250.958 47.3978C250.858 47.3578 250.748 47.3378 250.608 47.3378H249.508V48.7278H250.608C250.748 48.7278 250.858 48.7078 250.958 48.6678C251.058 48.6278 251.138 48.5778 251.208 48.5178C251.268 48.4478 251.318 48.3778 251.348 48.2878C251.378 48.2078 251.398 48.1178 251.398 48.0278ZM256.078 49.5078L255.688 48.4078H253.848L253.448 49.5078H252.538L254.418 44.5478H255.118L256.988 49.5078H256.078ZM255.098 46.6678L254.778 45.6478H254.748L254.428 46.6478L254.098 47.6778H255.428L255.098 46.6678ZM260.308 49.5078V47.3878H258.398V49.5078H257.528V44.5478H258.398V46.6278H260.308V44.5478H261.168V49.5078H260.308ZM262.198 49.5078V44.5478H263.068V48.0578C263.068 48.0578 263.078 48.0578 263.088 48.0578L264.238 46.2878L265.388 44.5478H266.108V49.5078H265.248V46.1378H265.228L264.238 47.6578C264.028 47.9678 263.828 48.2778 263.618 48.5878C263.418 48.8878 263.208 49.1978 262.998 49.5078H262.198ZM267.138 49.5078V44.5478H270.458V45.3278H267.998V46.6278H270.098V47.3878H267.998V48.7278H270.458V49.5078H267.138Z" fill="#353C75"/>
<path fill-rule="evenodd" clip-rule="evenodd" d="M62.661 0.618469C59.7511 0.618469 57.3911 2.98843 57.3911 5.89839C57.3911 8.79835 59.7511 11.1683 62.661 11.1683C65.571 11.1683 67.941 8.79835 67.941 5.89839C67.941 2.98843 65.571 0.618469 62.661 0.618469ZM62.661 9.71834C60.5511 9.71834 58.8411 7.99836 58.8411 5.89839C58.8411 3.78842 60.5511 2.06845 62.661 2.06845C64.771 2.06845 66.491 3.78842 66.491 5.89839C66.491 7.99836 64.771 9.71834 62.661 9.71834ZM64.581 5.2084C64.581 4.13842 63.831 3.47843 62.631 3.47843H60.8511V8.30836H61.871V6.95838H62.631C62.671 6.95838 62.721 6.95838 62.771 6.95838L63.751 8.30836H65.021L63.821 6.66838C64.311 6.35839 64.581 5.83839 64.581 5.2084ZM62.631 5.93839H61.871V4.50841H62.631C63.561 4.50841 63.561 5.03841 63.561 5.2084C63.561 5.3884 63.561 5.93839 62.631 5.93839Z" fill="#30367A"/>
</svg>
